<svg width="340" height="184" viewBox="0 0 340 184" fill="none" xmlns="http://www.w3.org/2000/svg">
<rect width="340" height="184" fill="#EEEEEE"/>
<path d="M136.266 93.293C136.16 94.1953 135.826 94.8926 135.264 95.3848C134.705 95.873 133.961 96.1172 133.031 96.1172C132.023 96.1172 131.215 95.7559 130.605 95.0332C130 94.3105 129.697 93.3438 129.697 92.1328V91.3125C129.697 90.5195 129.838 89.8223 130.119 89.2207C130.404 88.6191 130.807 88.1582 131.326 87.8379C131.846 87.5137 132.447 87.3516 133.131 87.3516C134.037 87.3516 134.764 87.6055 135.311 88.1133C135.857 88.6172 136.176 89.3164 136.266 90.2109H135.135C135.037 89.5312 134.824 89.0391 134.496 88.7344C134.172 88.4297 133.717 88.2773 133.131 88.2773C132.412 88.2773 131.848 88.543 131.438 89.0742C131.031 89.6055 130.828 90.3613 130.828 91.3418V92.168C130.828 93.0938 131.021 93.8301 131.408 94.377C131.795 94.9238 132.336 95.1973 133.031 95.1973C133.656 95.1973 134.135 95.0566 134.467 94.7754C134.803 94.4902 135.025 93.9961 135.135 93.293H136.266ZM137.35 92.7715C137.35 92.1504 137.471 91.5918 137.713 91.0957C137.959 90.5996 138.299 90.2168 138.732 89.9473C139.17 89.6777 139.668 89.543 140.227 89.543C141.09 89.543 141.787 89.8418 142.318 90.4395C142.854 91.0371 143.121 91.832 143.121 92.8242V92.9004C143.121 93.5176 143.002 94.0723 142.764 94.5645C142.529 95.0527 142.191 95.4336 141.75 95.707C141.312 95.9805 140.809 96.1172 140.238 96.1172C139.379 96.1172 138.682 95.8184 138.146 95.2207C137.615 94.623 137.35 93.832 137.35 92.8477V92.7715ZM138.439 92.9004C138.439 93.6035 138.602 94.168 138.926 94.5938C139.254 95.0195 139.691 95.2324 140.238 95.2324C140.789 95.2324 141.227 95.0176 141.551 94.5879C141.875 94.1543 142.037 93.5488 142.037 92.7715C142.037 92.0762 141.871 91.5137 141.539 91.084C141.211 90.6504 140.773 90.4336 140.227 90.4336C139.691 90.4336 139.26 90.6465 138.932 91.0723C138.604 91.498 138.439 92.1074 138.439 92.9004ZM145.506 89.6602L145.541 90.457C146.025 89.8477 146.658 89.543 147.439 89.543C148.779 89.543 149.455 90.2988 149.467 91.8105V96H148.383V91.8047C148.379 91.3477 148.273 91.0098 148.066 90.791C147.863 90.5723 147.545 90.4629 147.111 90.4629C146.76 90.4629 146.451 90.5566 146.186 90.7441C145.92 90.9316 145.713 91.1777 145.564 91.4824V96H144.48V89.6602H145.506ZM152.572 88.125V89.6602H153.756V90.498H152.572V94.4297C152.572 94.6836 152.625 94.875 152.73 95.0039C152.836 95.1289 153.016 95.1914 153.27 95.1914C153.395 95.1914 153.566 95.168 153.785 95.1211V96C153.5 96.0781 153.223 96.1172 152.953 96.1172C152.469 96.1172 152.104 95.9707 151.857 95.6777C151.611 95.3848 151.488 94.9688 151.488 94.4297V90.498H150.334V89.6602H151.488V88.125H152.572ZM156.205 96H155.121V89.6602H156.205V96ZM155.033 87.9785C155.033 87.8027 155.086 87.6543 155.191 87.5332C155.301 87.4121 155.461 87.3516 155.672 87.3516C155.883 87.3516 156.043 87.4121 156.152 87.5332C156.262 87.6543 156.316 87.8027 156.316 87.9785C156.316 88.1543 156.262 88.3008 156.152 88.418C156.043 88.5352 155.883 88.5938 155.672 88.5938C155.461 88.5938 155.301 88.5352 155.191 88.418C155.086 88.3008 155.033 88.1543 155.033 87.9785ZM158.971 89.6602L159.006 90.457C159.49 89.8477 160.123 89.543 160.904 89.543C162.244 89.543 162.92 90.2988 162.932 91.8105V96H161.848V91.8047C161.844 91.3477 161.738 91.0098 161.531 90.791C161.328 90.5723 161.01 90.4629 160.576 90.4629C160.225 90.4629 159.916 90.5566 159.65 90.7441C159.385 90.9316 159.178 91.1777 159.029 91.4824V96H157.945V89.6602H158.971ZM168.48 95.373C168.059 95.8691 167.439 96.1172 166.623 96.1172C165.947 96.1172 165.432 95.9219 165.076 95.5312C164.725 95.1367 164.547 94.5547 164.543 93.7852V89.6602H165.627V93.7559C165.627 94.7168 166.018 95.1973 166.799 95.1973C167.627 95.1973 168.178 94.8887 168.451 94.2715V89.6602H169.535V96H168.504L168.48 95.373ZM172.658 88.125V89.6602H173.842V90.498H172.658V94.4297C172.658 94.6836 172.711 94.875 172.816 95.0039C172.922 95.1289 173.102 95.1914 173.355 95.1914C173.48 95.1914 173.652 95.168 173.871 95.1211V96C173.586 96.0781 173.309 96.1172 173.039 96.1172C172.555 96.1172 172.189 95.9707 171.943 95.6777C171.697 95.3848 171.574 94.9688 171.574 94.4297V90.498H170.42V89.6602H171.574V88.125H172.658ZM180.721 96.1172C179.861 96.1172 179.162 95.8359 178.623 95.2734C178.084 94.707 177.814 93.9512 177.814 93.0059V92.8066C177.814 92.1777 177.934 91.6172 178.172 91.125C178.414 90.6289 178.75 90.2422 179.18 89.9648C179.613 89.6836 180.082 89.543 180.586 89.543C181.41 89.543 182.051 89.8145 182.508 90.3574C182.965 90.9004 183.193 91.6777 183.193 92.6895V93.1406H178.898C178.914 93.7656 179.096 94.2715 179.443 94.6582C179.795 95.041 180.24 95.2324 180.779 95.2324C181.162 95.2324 181.486 95.1543 181.752 94.998C182.018 94.8418 182.25 94.6348 182.449 94.377L183.111 94.8926C182.58 95.709 181.783 96.1172 180.721 96.1172ZM180.586 90.4336C180.148 90.4336 179.781 90.5938 179.484 90.9141C179.188 91.2305 179.004 91.6758 178.934 92.25H182.109V92.168C182.078 91.6172 181.93 91.1914 181.664 90.8906C181.398 90.5859 181.039 90.4336 180.586 90.4336ZM186.58 91.9746L187.986 89.6602H189.252L187.178 92.7949L189.316 96H188.062L186.598 93.627L185.133 96H183.873L186.012 92.7949L183.938 89.6602H185.191L186.58 91.9746ZM191.877 88.125V89.6602H193.061V90.498H191.877V94.4297C191.877 94.6836 191.93 94.875 192.035 95.0039C192.141 95.1289 192.32 95.1914 192.574 95.1914C192.699 95.1914 192.871 95.168 193.09 95.1211V96C192.805 96.0781 192.527 96.1172 192.258 96.1172C191.773 96.1172 191.408 95.9707 191.162 95.6777C190.916 95.3848 190.793 94.9688 190.793 94.4297V90.498H189.639V89.6602H190.793V88.125H191.877ZM196.963 96.1172C196.104 96.1172 195.404 95.8359 194.865 95.2734C194.326 94.707 194.057 93.9512 194.057 93.0059V92.8066C194.057 92.1777 194.176 91.6172 194.414 91.125C194.656 90.6289 194.992 90.2422 195.422 89.9648C195.855 89.6836 196.324 89.543 196.828 89.543C197.652 89.543 198.293 89.8145 198.75 90.3574C199.207 90.9004 199.436 91.6777 199.436 92.6895V93.1406H195.141C195.156 93.7656 195.338 94.2715 195.686 94.6582C196.037 95.041 196.482 95.2324 197.021 95.2324C197.404 95.2324 197.729 95.1543 197.994 94.998C198.26 94.8418 198.492 94.6348 198.691 94.377L199.354 94.8926C198.822 95.709 198.025 96.1172 196.963 96.1172ZM196.828 90.4336C196.391 90.4336 196.023 90.5938 195.727 90.9141C195.43 91.2305 195.246 91.6758 195.176 92.25H198.352V92.168C198.32 91.6172 198.172 91.1914 197.906 90.8906C197.641 90.5859 197.281 90.4336 196.828 90.4336ZM203.76 90.6328C203.596 90.6055 203.418 90.5918 203.227 90.5918C202.516 90.5918 202.033 90.8945 201.779 91.5V96H200.695V89.6602H201.75L201.768 90.3926C202.123 89.8262 202.627 89.543 203.279 89.543C203.49 89.543 203.65 89.5703 203.76 89.625V90.6328ZM205.787 89.6602L205.822 90.457C206.307 89.8477 206.939 89.543 207.721 89.543C209.061 89.543 209.736 90.2988 209.748 91.8105V96H208.664V91.8047C208.66 91.3477 208.555 91.0098 208.348 90.791C208.145 90.5723 207.826 90.4629 207.393 90.4629C207.041 90.4629 206.732 90.5566 206.467 90.7441C206.201 90.9316 205.994 91.1777 205.846 91.4824V96H204.762V89.6602H205.787Z" fill="white"/>
</svg>
